<svg xmlns="http://www.w3.org/2000/svg" width="70" height="70" viewBox="0 0 70 70">
  <path id="bootstrap-brands" d="M45.672,53.025c0,6.627-6.206,6.473-6.863,6.473H26.17V46.734H38.809C45.459,46.734,45.672,51.719,45.672,53.025ZM37.836,41.6c.1,0,6.006.156,6.006-5.673,0-2.425-.548-5.6-6.006-5.6H26.17V41.6ZM70,20.953V67.619A11.7,11.7,0,0,1,58.333,79.286H11.667A11.7,11.7,0,0,1,0,67.619V20.953A11.7,11.7,0,0,1,11.667,9.286H58.333A11.7,11.7,0,0,1,70,20.953Zm-17.18,33c0-3.37-1.039-9.108-7.664-10.523v-.114a8.952,8.952,0,0,0,5.834-8.694c0-1.094.313-10.122-12.125-10.122H19.022V65.331c20.036,0,21.855.262,25.563-.892C46.8,63.748,52.82,61.629,52.82,53.951Z" transform="translate(0 -9.286)"/>
</svg>
