<svg xmlns="http://www.w3.org/2000/svg" width="43.484" height="40.74" viewBox="0 0 43.484 40.74">
  <g id="coach" transform="translate(0 -0.09)">
    <path id="Path_15" data-name="Path 15" d="M168.477,308.817a3.024,3.024,0,1,1-3.024-3.024A3.024,3.024,0,0,1,168.477,308.817Zm0,0" transform="translate(-147.716 -278.03)" fill="#edc559"/>
    <path id="Path_16" data-name="Path 16" d="M147.7,367.205a.567.567,0,0,0-.465.223,2.374,2.374,0,0,1-3.8,0,.568.568,0,0,0-.465-.225,2.779,2.779,0,0,0-2.8,2.756v4.323a.546.546,0,0,0,.6.518H149.9a.512.512,0,0,0,.557-.518v-4.323a2.745,2.745,0,0,0-2.757-2.756Zm0,0" transform="translate(-127.568 -333.973)" fill="#edc559"/>
    <path id="Path_17" data-name="Path 17" d="M283.157,308.817a3.024,3.024,0,1,1-3.024-3.024A3.024,3.024,0,0,1,283.157,308.817Zm0,0" transform="translate(-252.008 -278.03)" fill="#edc559"/>
    <path id="Path_18" data-name="Path 18" d="M255.172,369.961v4.323a.52.52,0,0,0,.566.518h9.135a.539.539,0,0,0,.588-.518v-4.323a2.772,2.772,0,0,0-2.788-2.756.567.567,0,0,0-.465.224,2.374,2.374,0,0,1-3.8,0,.566.566,0,0,0-.465-.225,2.752,2.752,0,0,0-2.767,2.756Zm0,0" transform="translate(-232.228 -333.973)" fill="#edc559"/>
    <path id="Path_19" data-name="Path 19" d="M397.833,308.817a3.024,3.024,0,1,1-3.024-3.024A3.024,3.024,0,0,1,397.833,308.817Zm0,0" transform="translate(-356.417 -278.03)" fill="#edc559"/>
    <path id="Path_20" data-name="Path 20" d="M376.737,367.205a.567.567,0,0,0-.465.223,2.331,2.331,0,0,1-.5.5,2.36,2.36,0,0,1-3.3-.5.569.569,0,0,0-.465-.227,2.809,2.809,0,0,0-2.832,2.756v4.323a.578.578,0,0,0,.631.518h9.135a.485.485,0,0,0,.523-.518v-4.323a2.717,2.717,0,0,0-2.724-2.756Zm0,0" transform="translate(-335.978 -333.973)" fill="#edc559"/>
    <path id="Path_21" data-name="Path 21" d="M49.72,6.449a2.553,2.553,0,0,0,2.548-2.557V2.638a2.548,2.548,0,0,0-5.1,0V3.892A2.552,2.552,0,0,0,49.72,6.449Zm0,0" transform="translate(-42.636)" fill="#edc559"/>
    <path id="Path_22" data-name="Path 22" d="M43.7,237.872l.5-16.665H36.871l.5,16.669a1.3,1.3,0,0,0,2.6-.032V223.687a.577.577,0,0,1,1.154,0v14.157a1.285,1.285,0,1,0,2.57.028Zm0,0" transform="translate(-33.325 -202.014)" fill="#edc559"/>
    <path id="Path_23" data-name="Path 23" d="M.017,95.242v9.633a1.065,1.065,0,0,0,.335.781,1.109,1.109,0,0,0,.812.3h.015a1.126,1.126,0,0,0,1.146-1.132v-6.4a.577.577,0,1,1,1.154,0v3.891c0,.029,0,.039,0,.069l.028,1.072h7.4l-.026-.7V98.426a.577.577,0,1,1,1.154,0v3.889c0,.04.011.082.009.124l-.009.335v2.1a1.154,1.154,0,1,0,2.308,0V95.242c0-.019.024-.038.026-.058A2.68,2.68,0,0,0,12,92.235a2.559,2.559,0,0,0-.268-.027H10.307L7.6,94.765c-.011.011-.024.027-.036.036a.547.547,0,0,1-.046.038,1.041,1.041,0,0,1-.1.054l-.055.017a.5.5,0,0,1-.052.014.484.484,0,0,1-.057.006.515.515,0,0,1-.053,0,1.21,1.21,0,0,1-.11-.011c-.018,0-.036-.01-.054-.015S7,94.9,6.98,94.89a.569.569,0,0,1-.052-.027c-.016-.009-.032-.017-.048-.027s-.032-.025-.047-.039-.024-.029-.035-.039L4.191,92.207H2.674A2.689,2.689,0,0,0,0,94.9c0,.09,0,.189.011.279,0,.019.006.043.006.063Zm0,0" transform="translate(0 -83.917)" fill="#edc559"/>
    <path id="Path_24" data-name="Path 24" d="M260.441,213.45a.574.574,0,0,1,.081-.075l-.035.028-5.606,4.995a.577.577,0,1,0,.767.861l5.223-4.653-.384-.342A.577.577,0,0,1,260.441,213.45Zm0,0" transform="translate(-231.621 -193.977)" fill="#edc559"/>
    <path id="Path_25" data-name="Path 25" d="M324.626,219.642a.577.577,0,0,0,.384-1.007l-5.606-5,0,0a.583.583,0,0,1,.051.05.577.577,0,0,1-.047.814l-.384.342,5.223,4.653A.574.574,0,0,0,324.626,219.642Zm0,0" transform="translate(-290.128 -194.214)" fill="#edc559"/>
    <path id="Path_26" data-name="Path 26" d="M223.769,63.073V49.207h-22.6V63.073A1.445,1.445,0,0,0,202.65,64.5h19.708a1.388,1.388,0,0,0,1.411-1.423Zm-19.408-9.731h12.4a.577.577,0,0,1,0,1.154h-12.4a.577.577,0,1,1,0-1.154Zm16.347,6.443H204.361a.577.577,0,1,1,0-1.154h16.347a.577.577,0,0,1,0,1.154Zm0-2.6H204.361a.577.577,0,1,1,0-1.154h16.347a.577.577,0,0,1,0,1.154Zm0,0" transform="translate(-184.132 -44.394)" fill="#edc559"/>
    <path id="Path_27" data-name="Path 27" d="M183.172,1.207h26.155V4.669H183.172Zm0,0" transform="translate(-167.863 -1.01)" fill="#edc559"/>
  </g>
</svg>
