<svg xmlns="http://www.w3.org/2000/svg" width="97.976" height="69.4" viewBox="0 0 97.976 69.4">
  <g id="frontend" transform="translate(0 -74.666)">
    <g id="Group_2" data-name="Group 2" transform="translate(0 74.666)">
      <path id="Path_14" data-name="Path 14" d="M81.647,135.9a8.128,8.128,0,0,0,8.124-8.165l.041-44.906a8.162,8.162,0,0,0-8.165-8.165H16.329a8.162,8.162,0,0,0-8.165,8.165v44.906a8.162,8.162,0,0,0,8.165,8.165H0a8.162,8.162,0,0,0,8.165,8.165H89.812a8.162,8.162,0,0,0,8.165-8.165ZM16.329,82.831H81.647v44.906H16.329Zm32.659,57.153A4.082,4.082,0,1,1,53.07,135.9,4.094,4.094,0,0,1,48.988,139.984Z" transform="translate(0 -74.666)"/>
    </g>
  </g>
</svg>
