<svg xmlns="http://www.w3.org/2000/svg" width="36.628" height="29.3" viewBox="0 0 36.628 29.3">
  <path id="hands-helping-solid" d="M27.907,11.009h-8.7v3.2a4.121,4.121,0,1,1-8.241,0V7.254L7.253,9.486a3.655,3.655,0,0,0-1.78,3.136V15.33L.894,17.974a1.827,1.827,0,0,0-.67,2.5L4.8,28.407a1.832,1.832,0,0,0,2.5.67l5.918-3.417H21.04A3.666,3.666,0,0,0,24.7,22h.916a1.829,1.829,0,0,0,1.831-1.831V16.5h.458a1.37,1.37,0,0,0,1.374-1.374V12.382A1.37,1.37,0,0,0,27.907,11.009Zm8.453-2.14L31.782.936a1.832,1.832,0,0,0-2.5-.67L23.363,3.683H17.514a3.69,3.69,0,0,0-1.94.555l-1.917,1.2A1.819,1.819,0,0,0,12.8,6.985v7.228a2.289,2.289,0,1,0,4.579,0V9.177H27.907a3.207,3.207,0,0,1,3.2,3.2v1.631l4.579-2.644A1.833,1.833,0,0,0,36.361,8.868Z" transform="translate(0.023 -0.022)" fill="#edc559"/>
</svg>
