<svg xmlns="http://www.w3.org/2000/svg" width="70" height="70" viewBox="0 0 70 70">
  <path id="js-square-brands" d="M62.5,9.286H7.5a7.5,7.5,0,0,0-7.5,7.5v55a7.5,7.5,0,0,0,7.5,7.5h55a7.5,7.5,0,0,0,7.5-7.5v-55A7.5,7.5,0,0,0,62.5,9.286ZM38.094,63.879c0,6.812-4,9.922-9.828,9.922-5.266,0-8.312-2.719-9.875-6.016l5.359-3.234c1.031,1.828,1.969,3.375,4.234,3.375,2.156,0,3.531-.844,3.531-4.141V41.426h6.578ZM53.656,73.8c-6.109,0-10.062-2.906-11.984-6.719l5.359-3.094c1.406,2.3,3.25,4,6.484,4,2.719,0,4.469-1.359,4.469-3.25,0-2.25-1.781-3.047-4.8-4.375l-1.641-.7c-4.75-2.016-7.891-4.563-7.891-9.922,0-4.938,3.766-8.687,9.625-8.687,4.188,0,7.187,1.453,9.344,5.266L57.5,49.6c-1.125-2.016-2.344-2.812-4.234-2.812A2.855,2.855,0,0,0,50.125,49.6c0,1.969,1.219,2.766,4.047,4l1.641.7c5.594,2.391,8.734,4.844,8.734,10.344,0,5.906-4.656,9.156-10.891,9.156Z" transform="translate(0 -9.286)"/>
</svg>
