<svg xmlns="http://www.w3.org/2000/svg" width="79.996" height="70" viewBox="0 0 79.996 70">
  <path id="react-brands" d="M65.34,54.7q-1.266-.422-2.531-.8c.141-.578.266-1.156.391-1.734,1.922-9.312.656-16.8-3.609-19.265-4.109-2.359-10.812.094-17.593,6-.672.578-1.328,1.187-1.953,1.8-.422-.406-.859-.812-1.3-1.2-7.109-6.312-14.234-8.968-18.5-6.484-4.094,2.375-5.312,9.421-3.594,18.233.172.875.359,1.734.578,2.609-1,.281-1.984.594-2.906.922C5.984,57.665,0,62.228,0,66.946c0,4.875,6.375,9.765,15.046,12.734.7.234,1.406.469,2.125.672-.234.937-.437,1.859-.625,2.812-1.641,8.671-.359,15.546,3.734,17.905,4.219,2.437,11.312-.062,18.218-6.109.547-.484,1.094-.984,1.641-1.516.687.672,1.406,1.312,2.125,1.937,6.687,5.75,13.3,8.078,17.374,5.718,4.219-2.437,5.593-9.828,3.812-18.827q-.211-1.031-.469-2.109c.5-.141.984-.3,1.469-.453C73.465,76.727,80,71.9,80,66.946,80,62.212,73.84,57.619,65.34,54.7ZM44.2,41.432c5.812-5.062,11.234-7.046,13.7-5.625,2.64,1.516,3.656,7.64,2,15.687-.109.531-.219,1.047-.359,1.562A79.987,79.987,0,0,0,49.029,51.4a78.942,78.942,0,0,0-6.656-8.3C42.982,42.526,43.576,41.979,44.2,41.432ZM26.124,75.055c.8,1.359,1.609,2.719,2.469,4.047a70.745,70.745,0,0,1-7.25-1.172,72.984,72.984,0,0,1,2.547-6.953c.719,1.375,1.453,2.734,2.234,4.078Zm-4.734-18.8c2.25-.5,4.64-.906,7.125-1.219-.828,1.3-1.641,2.625-2.406,3.969-.766,1.328-1.516,2.687-2.219,4.062-.984-2.328-1.812-4.609-2.5-6.812Zm4.281,10.765c1.031-2.156,2.156-4.265,3.344-6.343s2.469-4.094,3.812-6.078c2.344-.172,4.734-.266,7.171-.266s4.843.094,7.172.266q1.992,2.953,3.8,6.047t3.39,6.312q-1.57,3.234-3.375,6.375c-1.187,2.078-2.453,4.094-3.781,6.093-2.328.172-4.75.25-7.2.25s-4.828-.078-7.125-.219q-2.039-2.976-3.844-6.093c-1.2-2.078-2.312-4.187-3.359-6.343Zm28.217,8c.8-1.375,1.547-2.765,2.281-4.172a72.529,72.529,0,0,1,2.64,6.922,68.632,68.632,0,0,1-7.343,1.25C52.31,77.711,53.107,76.368,53.888,75.024Zm2.25-11.952c-.734-1.375-1.484-2.75-2.265-4.094q-1.148-1.992-2.39-3.937a71.9,71.9,0,0,1,7.171,1.25A69.146,69.146,0,0,1,56.138,63.071ZM40.029,45.494c1.641,1.781,4.625,5.593,4.625,5.593s-6.2-.141-9.3,0C36.889,49.072,38.467,47.2,40.029,45.494ZM21.905,35.917c2.625-1.531,8.453.656,14.593,6.093.391.344.781.719,1.187,1.094a79.376,79.376,0,0,0-6.7,8.3,82.361,82.361,0,0,0-10.5,1.625c-.2-.8-.375-1.609-.547-2.422-1.469-7.562-.5-13.265,1.969-14.687ZM18.077,77.1c-.656-.187-1.3-.391-1.937-.609A31.866,31.866,0,0,1,6.3,71.618a7.011,7.011,0,0,1-2.937-4.672c0-2.859,4.937-6.515,12.062-9,.891-.312,1.8-.594,2.7-.859a83.079,83.079,0,0,0,3.828,9.937A85.406,85.406,0,0,0,18.077,77.1ZM36.295,92.414a28.6,28.6,0,0,1-8.812,5.515,6.915,6.915,0,0,1-5.515.2c-2.484-1.437-3.515-6.953-2.109-14.374.172-.875.359-1.75.578-2.609A78.164,78.164,0,0,0,31.045,82.68a82.454,82.454,0,0,0,6.75,8.343C37.295,91.507,36.795,91.976,36.295,92.414Zm3.828-3.8c-1.594-1.719-3.187-3.625-4.734-5.672,1.5.062,3.047.094,4.609.094,1.609,0,3.187-.031,4.75-.109A67.385,67.385,0,0,1,40.123,88.617ZM60.544,93.3a6.944,6.944,0,0,1-2.578,4.89c-2.484,1.437-7.781-.437-13.5-5.343-.656-.562-1.312-1.172-1.984-1.8a77.292,77.292,0,0,0,6.593-8.375,77.022,77.022,0,0,0,10.656-1.641c.156.641.3,1.281.422,1.906A28.482,28.482,0,0,1,60.544,93.3Zm2.844-16.8c-.437.141-.875.281-1.328.406a79.372,79.372,0,0,0-3.984-9.968A78.973,78.973,0,0,0,61.9,57.119c.812.234,1.594.484,2.344.734,7.281,2.5,12.39,6.218,12.39,9.062C76.637,69.977,71.184,73.93,63.387,76.508ZM40,74.165a7.156,7.156,0,1,0-7.156-7.156A7.155,7.155,0,0,0,40,74.165Z" transform="translate(0 -32.012)"/>
</svg>
