<svg xmlns="http://www.w3.org/2000/svg" width="29.3" height="29.3" viewBox="0 0 29.3 29.3">
  <path id="wordpress-alt" d="M11.172,17.534l6,16.422a12.57,12.57,0,0,1-6-16.422Zm19.961,4.484A6.627,6.627,0,0,0,30.1,18.55,5.877,5.877,0,0,1,28.864,15.6a2.175,2.175,0,0,1,2.109-2.233c.053,0,.106.006.165.012a12.566,12.566,0,0,0-18.992,2.363c.3.012.573.018.809.018,1.311,0,3.349-.159,3.349-.159a.519.519,0,0,1,.083,1.034s-.679.077-1.435.118l4.578,13.61,2.753-8.247-1.955-5.364c-.679-.041-1.317-.118-1.317-.118a.518.518,0,0,1,.077-1.034s2.073.159,3.308.159c1.311,0,3.349-.159,3.349-.159a.519.519,0,0,1,.083,1.034s-.679.077-1.435.118l4.543,13.51,1.252-4.188a15.512,15.512,0,0,0,.945-4.058Zm-8.264,1.731L19.1,34.707a12.522,12.522,0,0,0,7.721-.2.941.941,0,0,1-.089-.171Zm10.81-7.13a9.791,9.791,0,0,1,.083,1.294,11.806,11.806,0,0,1-.957,4.5l-3.84,11.1a12.58,12.58,0,0,0,4.714-16.895ZM37.3,22.65A14.65,14.65,0,1,1,22.65,8,14.666,14.666,0,0,1,37.3,22.65Zm-.673,0A13.977,13.977,0,1,0,22.65,36.627,13.993,13.993,0,0,0,36.627,22.65Z" transform="translate(-8 -8)" fill="#edc559"/>
</svg>
