<svg xmlns="http://www.w3.org/2000/svg" width="69.4" height="69.4" viewBox="0 0 69.4 69.4">
  <path id="wordpress" d="M42.7,8A34.7,34.7,0,1,0,77.4,42.7,34.739,34.739,0,0,0,42.7,8ZM11.5,42.7a30.984,30.984,0,0,1,2.7-12.691L29.086,70.782A31.225,31.225,0,0,1,11.5,42.7ZM42.7,73.9a31.08,31.08,0,0,1-8.815-1.273l9.361-27.2L52.83,71.705a4.217,4.217,0,0,0,.224.434A31.236,31.236,0,0,1,42.7,73.9ZM47,28.078c1.875-.1,3.568-.294,3.568-.294a1.291,1.291,0,0,0-.2-2.575s-5.051.392-8.311.392c-3.064,0-8.213-.392-8.213-.392a1.291,1.291,0,0,0-.2,2.575s1.6.2,3.274.294L41.777,41.4l-6.828,20.47L23.587,28.078c1.875-.1,3.568-.294,3.568-.294a1.291,1.291,0,0,0-.2-2.575s-5.051.392-8.311.392c-.588,0-1.273-.014-2.015-.042a31.2,31.2,0,0,1,47.139-5.877,3.953,3.953,0,0,0-.406-.028A5.4,5.4,0,0,0,58.133,25.2c0,2.575,1.483,4.743,3.064,7.318a16.374,16.374,0,0,1,2.575,8.605c0,2.672-1.021,5.765-2.379,10.088L58.287,61.6,47,28.078ZM58.385,69.662l9.529-27.55a29.512,29.512,0,0,0,2.379-11.18,22.963,22.963,0,0,0-.21-3.2,31.2,31.2,0,0,1-11.7,41.934Z" transform="translate(-8 -8)"/>
</svg>
