<svg xmlns="http://www.w3.org/2000/svg" width="70" height="70" viewBox="0 0 70 70">
  <path id="wordpress-brands" d="M9.675,24.875,24,64.109A30.031,30.031,0,0,1,9.675,24.875ZM57.363,35.587a15.833,15.833,0,0,0-2.47-8.284c-1.524-2.47-2.95-4.573-2.95-7.042a5.2,5.2,0,0,1,5.038-5.335c.127,0,.254.014.4.028A30.021,30.021,0,0,0,12,20.6c.706.028,1.369.042,1.933.042,3.133,0,8-.381,8-.381a1.239,1.239,0,0,1,.2,2.47s-1.623.183-3.429.282L29.645,55.528l6.577-19.7L31.55,23.012c-1.623-.1-3.147-.282-3.147-.282a1.239,1.239,0,0,1,.183-2.47s4.954.381,7.9.381c3.133,0,8-.381,8-.381a1.239,1.239,0,0,1,.2,2.47s-1.623.183-3.429.282L52.113,55.288,55.1,45.282c1.27-4.149,2.258-7.127,2.258-9.7ZM37.619,39.722l-9,26.179a29.916,29.916,0,0,0,18.446-.48,2.249,2.249,0,0,1-.212-.409ZM63.446,22.687a23.392,23.392,0,0,1,.2,3.091,28.206,28.206,0,0,1-2.286,10.754L52.183,63.05A30.054,30.054,0,0,0,63.446,22.687ZM72.1,37.1a35,35,0,1,1-35-35A35.039,35.039,0,0,1,72.1,37.1Zm-1.609,0A33.391,33.391,0,1,0,37.1,70.488,33.431,33.431,0,0,0,70.488,37.1Z" transform="translate(-2.097 -2.097)"/>
</svg>
